<?xml version="1.0" encoding="UTF-8"?><svg id="Layer_1" xmlns="http://www.w3.org/2000/svg" viewBox="0 0 2000 2000"><defs><style>.cls-1{fill:red;}.cls-1,.cls-2{stroke-width:0px;}.cls-2{fill:#fff;}</style></defs><rect class="cls-1" width="2000" height="2000"/><path class="cls-2" d="m450.1265,1770.7454c17.5464-11.937,40.1227-17.894,67.7056-17.894,32.5896,0,74.9143,10.4072,126.9741,31.2219,38.2452,14.4868,65.9904,23.7816,83.2355,27.9075,17.2451,4.0795,37.1558,6.1423,59.7321,6.1423,81.4971,0,175.8585-35.371,283.0841-106.113,128.9675-85.1593,221.8223-184.0869,278.5411-296.7828,42.9738-85.7621,64.4838-215.3785,64.4838-388.8032,0-56.348-.51-110.8184-1.4834-163.4114-1.9934-99.5535-2.967-168.7426-2.967-207.5672,0-77.6262,14.8809-149.4577,44.6658-215.5176,29.3018-65.0387,83.4041-140.8477,162.2698-227.4327-12.5466-9.8339-25.3333-19.375-38.3513-28.6118-42.4778,31.0779-82.9019,53.3583-121.2528,66.8582-40.9803,14.4173-90.5369,21.626-148.7159,21.626-61.9341,0-147.302-12.4471-256.1271-37.3412-135.7358-30.4803-232.0673-45.732-288.9716-45.732-90.6992,0-167.3287,28.4637-229.8654,85.3679-62.5599,56.9274-93.8283,119.4642-93.8283,187.6334,0,46.9141,12.6326,84.5799,37.9439,113.0436,25.2882,28.4637,54.4937,42.6724,87.5931,42.6724,25.6127,0,46.7055-8.4139,63.2552-25.2882,16.5498-16.8511,24.8246-37.7585,24.8246-62.7454,0-22.4604-7.4636-41.3512-22.3908-56.6493-14.9272-15.298-32.9373-22.9471-54.0764-22.9471-9.9438,0-21.2783,2.7351-34.0267,8.1589-12.7484,5.4471-22.2286,8.159-28.4406,8.159-6.861,0-12.6093-2.4802-17.2683-7.4868-4.6589-5.0067-6.9768-11.5663-6.9768-19.679,0-26.2385,15.3212-51.9903,45.9638-77.3017,30.6425-25.2881,72.55-37.9438,125.7224-37.9438,40.6327,0,98.7886,13.606,174.4677,40.7949,75.6792,27.2121,144.4742,40.7949,206.4083,40.7949,60.0334,0,134.7622-14.0928,224.2097-42.3015-98.3713,63.1857-169.4843,117.4244-213.3387,162.7623-43.8546,45.338-73.9408,89.123-90.2123,131.3318-16.2948,42.232-25.6823,98.9971-28.1856,170.3187-58.2486-33.169-111.4906-49.7651-159.7028-49.7651-36.3214,0-69.189,5.7484-98.6263,17.222s-62.0036,31.6855-97.6992,60.6592l25.9604,31.8942c32.5432-21.7418,63.5103-32.6359,92.9474-32.6359,32.5432,0,66.199,10.755,100.9442,32.2651,34.722,21.51,62.4208,51.2486,83.0964,89.262,15.6226,28.6723,26.8876,70.7421,33.7949,126.2092-34.3743-20.3975-63.4175-34.1426-87.1527-41.2585-23.7352-7.0928-49.6724-10.6624-77.7885-10.6624-51.8745,0-107.1562,17.5697-165.8683,52.6626l22.9935,33.3777c26.679-5.9338,49.0234-8.9008,67.0103-8.9008,96.7952,0,178.3849,46.5201,244.7925,139.5371,47.7718,67.2653,71.6693,135.7589,71.6693,205.5275,0,50.9009-15.1822,91.9276-45.5466,123.0337-30.3644,31.083-69.9308,46.6592-118.7456,46.6592-25.0333,0-63.5334-8.4139-115.4774-25.2418-36.2982-11.8676-69.1659-17.7782-98.5799-17.7782-70.0931,0-126.441,23.202-168.9975,69.6062-23.6155,26.4685-43.187,66.1179-58.7196,118.9301,11.3594,8.871,22.9123,17.5055,34.6573,25.8887,9.6463-21.8406,19.7908-36.4449,30.4365-43.7355Zm605.3406-199.2458c25.3114-56.9043,37.9902-136.3385,37.9902-238.3025l-4.4503-415.5981c0-123.845,14.0464-221.5673,42.1624-293.1902,28.0929-71.5997,69.9541-134.6232,125.5603-189.0472,41.8611-40.0068,107.1329-81.613,195.8386-124.7721-82.1692,79.4341-137.8682,152.9345-167.12,220.4778-42.9506,97.5833-64.4142,210.1633-64.4142,337.7401l5.9338,425.9359c0,81.3115-12.1689,148.3914-36.5068,201.2393-24.3379,52.848-57.7156,95.845-100.1329,128.9907-30.573,23.7584-80.4772,50.0201-149.7358,78.8083,58.6659-46.9141,96.9574-91.0237,114.8748-132.282Z"/></svg>